<svg id="SvgjsSvg1052" width="288" height="288" xmlns="http://www.w3.org/2000/svg" version="1.1" xmlns:xlink="http://www.w3.org/1999/xlink" xmlns:svgjs="http://svgjs.com/svgjs"><defs id="SvgjsDefs1053"></defs><g id="SvgjsG1054"><svg xmlns="http://www.w3.org/2000/svg" viewBox="0 0 57 58" width="288" height="288"><path fill="#f5f4dc" d="M0 0 C1.31613281 -0.04898437 2.63226563 -0.09796875 3.98828125 -0.1484375 C8.52169911 0.49303873 9.87271568 1.85783986 12.6875 5.375 C14.02577901 8.05155801 13.89328556 10.19934052 13.9375 13.1875 C13.96328125 14.22519531 13.9890625 15.26289062 14.015625 16.33203125 C13.54821385 20.66671326 11.94553857 23.11420861 8.90234375 26.1640625 C5.91601717 27.79679837 3.6384905 27.77350398 0.25 27.75 C-0.86246094 27.75773437 -1.97492187 27.76546875 -3.12109375 27.7734375 C-6.64082026 27.3340102 -8.49352912 26.49295696 -11.3125 24.375 C-13.80758858 20.63236712 -13.64362659 18.46631308 -13.6875 14 C-13.71585938 12.69289063 -13.74421875 11.38578125 -13.7734375 10.0390625 C-13.25017625 5.87957899 -12.2519989 4.29264389 -9.3125 1.375 C-6.3254054 -0.1185473 -3.2751552 0.06868772 0 0 Z " transform="translate(13.313 30.625)" class="color5B7F9B svgShape"></path><path fill="#f5f4dc" d="M0 0 C1.03769531 -0.02578125 2.07539063 -0.0515625 3.14453125 -0.078125 C6.67102565 0.30213884 8.40042447 1.0733366 11.1875 3.25 C15.21918727 8.48148917 14.98462489 13.90728584 14.1875 20.25 C12.9081251 23.44543403 11.3418124 25.6728438 8.1875 27.25 C5.73262577 27.42721577 3.33188336 27.52736821 0.875 27.5625 C-0.44113281 27.59988281 -1.75726563 27.63726563 -3.11328125 27.67578125 C-7.31472832 27.19219336 -8.87626487 26.21928843 -11.8125 23.25 C-13.3060473 20.2629054 -13.11881228 17.2126552 -13.1875 13.9375 C-13.23648437 12.62136719 -13.28546875 11.30523437 -13.3359375 9.94921875 C-12.69446127 5.41580089 -11.32966014 4.06478432 -7.8125 1.25 C-5.13594199 -0.08827901 -2.98815948 0.04421444 0 0 Z " transform="translate(12.813 -.25)" class="color5B7F9B svgShape"></path><path fill="#f5f4dc" d="M0 0 C1.20527344 -0.02835938 2.41054688 -0.05671875 3.65234375 -0.0859375 C7.63976303 0.45302639 9.23582147 1.57434982 12.0625 4.375 C13.55602829 7.36205657 13.32817862 10.4131251 13.375 13.6875 C13.41238281 15.00363281 13.44976562 16.31976563 13.48828125 17.67578125 C13.00319104 21.89028056 12.09017899 23.46733711 9.0625 26.375 C3.59337457 28.19804181 -3.76500785 28.86624404 -9.08984375 26.36328125 C-11.67274825 24.26032967 -12.88387515 22.53587455 -13.9375 19.375 C-14.44338195 13.17794615 -14.70012822 7.61580359 -10.9375 2.375 C-7.43546138 0.0158178 -4.14674681 0.04425557 0 0 Z " transform="translate(43.938 30.625)" class="color5B7F9B svgShape"></path><path fill="#f5f4dc" d="M0 0 C1.65 0 3.3 0 5 0 C6.4783226 2.95664519 6.06032783 5.74229737 6 9 C8.64 9 11.28 9 14 9 C14.38218767 10.65614657 14.71395102 12.32457024 15 14 C14 15 14 15 12.15234375 15.09765625 C10.1015625 15.06510417 8.05078125 15.03255208 6 15 C6.020625 16.11375 6.04125 17.2275 6.0625 18.375 C6 22 6 22 5 24 C3.35 24 1.7 24 0 24 C0 21.03 0 18.06 0 15 C-2.64 15 -5.28 15 -8 15 C-9.0625 13.125 -9.0625 13.125 -10 11 C-9.67 10.34 -9.34 9.68 -9 9 C-6.03 9 -3.06 9 0 9 C0 6.03 0 3.06 0 0 Z " transform="translate(40 3)" class="color5B7F9B svgShape"></path></svg></g></svg>