<svg id="SvgjsSvg1001" width="288" height="288" xmlns="http://www.w3.org/2000/svg" version="1.1" xmlns:xlink="http://www.w3.org/1999/xlink" xmlns:svgjs="http://svgjs.com/svgjs"><defs id="SvgjsDefs1002"></defs><g id="SvgjsG1008"><svg xmlns="http://www.w3.org/2000/svg" viewBox="0 0 60 59" width="288" height="288"><path fill="#f5f4dc" d="M0 0 C3.97922461 2.68165137 5.20400994 5.07204109 6.125 9.625 C6.23070313 10.38039063 6.33640625 11.13578125 6.4453125 11.9140625 C7.10851462 14.40807609 8.14654122 15.26178218 10 17 C11.57353809 21.72061428 12.15401836 27.26535934 10.17578125 31.953125 C8.70091561 34.21202702 7.43241356 35.78379322 5 37 C1.90334962 37.31569929 -1.20172046 37.32411736 -4.3125 37.375 C-5.59543945 37.43107422 -5.59543945 37.43107422 -6.90429688 37.48828125 C-11.41022891 37.55110602 -13.36348864 37.48861848 -17.04296875 34.6640625 C-20.24744538 30.30188074 -20.42120586 26.25993655 -20 21 C-19.03374806 17.82517218 -18.34535035 16.34535035 -16 14 C-15.46972668 11.93329016 -15.46972668 11.93329016 -15.125 9.625 C-14.31547016 5.62874952 -13.35974499 3.51980874 -10 1 C-6.76700668 -0.61649666 -3.49534557 -0.57025791 0 0 Z M-7 6 C-9.2773501 8.81509993 -9.2773501 8.81509993 -9 12 C-6.03 12 -3.06 12 0 12 C-0.37904208 8.70924004 -0.37904208 8.70924004 -2 6 C-4.45792029 5.66656449 -4.45792029 5.66656449 -7 6 Z M-6 22 C-6.99 23.485 -6.99 23.485 -8 25 C-7.01 25.99 -6.02 26.98 -5 28 C-4.01 27.67 -3.02 27.34 -2 27 C-1.67 26.01 -1.34 25.02 -1 24 C-1.33 23.34 -1.66 22.68 -2 22 C-3.32 22 -4.64 22 -6 22 Z " transform="translate(49 22)" class="color5B7F9B svgShape"></path><path fill="#f5f4dc" d="M0 0 C4.64425866 2.49413891 8.31375022 4.94125067 10 10 C10.39916616 14.52900064 10.56292698 18.63712416 8.8125 22.875 C5.85027889 26.34794889 2.51933263 29.7235984 -2.171875 30.23828125 C-8.0102038 30.40635435 -11.42827085 30.01420121 -16 26 C-19.49880484 22.01860139 -20.35366227 18.44301638 -20.28515625 13.12890625 C-19.67814602 8.59711757 -17.30250092 5.18409174 -13.9375 2.125 C-9.49521531 -0.45439111 -5.00008431 -0.6324893 0 0 Z " transform="translate(25)" class="color5B7F9B svgShape"></path><path fill="#f5f4dc" d="M0 0 C-0.02320312 1.31355469 -0.04640625 2.62710938 -0.0703125 3.98046875 C-0.08907651 5.71614013 -0.10727604 7.45181768 -0.125 9.1875 C-0.14175781 10.05181641 -0.15851562 10.91613281 -0.17578125 11.80664062 C-0.18222656 12.64775391 -0.18867188 13.48886719 -0.1953125 14.35546875 C-0.20578613 15.12528076 -0.21625977 15.89509277 -0.22705078 16.68823242 C0.03920032 19.39912671 0.89313806 21.52392304 2 24 C-1.96930989 24.02465881 -5.93859034 24.04284023 -9.90795898 24.05493164 C-11.25920386 24.05997057 -12.61044326 24.06680177 -13.96166992 24.07543945 C-15.90020434 24.08752419 -17.838778 24.09269828 -19.77734375 24.09765625 C-21.52905884 24.10551147 -21.52905884 24.10551147 -23.31616211 24.11352539 C-26 24 -26 24 -27 23 C-27.56204761 16.11491678 -25.86145615 11.0334841 -22.3125 5.25 C-16.59832871 -0.30973423 -7.6807201 -3.84036005 0 0 Z " transform="translate(27 35)" class="color5B7F9B svgShape"></path></svg></g></svg>