<svg id="SvgjsSvg1037" width="288" height="288" xmlns="http://www.w3.org/2000/svg" version="1.1" xmlns:xlink="http://www.w3.org/1999/xlink" xmlns:svgjs="http://svgjs.com/svgjs"><defs id="SvgjsDefs1038"></defs><g id="SvgjsG1039"><svg xmlns="http://www.w3.org/2000/svg" viewBox="0 0 72 72" width="288" height="288"><path fill="#f5f4dc" d="M0 0 C0.90458954 -0.00960754 1.80917908 -0.01921509 2.74118042 -0.02911377 C3.71620514 -0.03336365 4.69122986 -0.03761353 5.69580078 -0.04199219 C7.20317307 -0.0505423 7.20317307 -0.0505423 8.74099731 -0.05926514 C10.86768542 -0.06871296 12.99438815 -0.07524825 15.12109375 -0.07910156 C18.37151661 -0.08880866 21.62130755 -0.11983504 24.87158203 -0.15136719 C26.93798453 -0.15789724 29.00439154 -0.16314771 31.07080078 -0.16699219 C32.52726517 -0.18551239 32.52726517 -0.18551239 34.01315308 -0.20440674 C42.56778989 -0.176222 42.56778989 -0.176222 46.51611328 3.16113281 C48.80624981 6.59633761 48.69454301 8.14646381 48.51611328 12.16113281 C49.58861328 12.26425781 50.66111328 12.36738281 51.76611328 12.47363281 C57.35209859 13.49773012 57.35209859 13.49773012 59.51611328 16.16113281 C60.68985202 20.35421326 61.00255988 23.87348004 59.45361328 27.97363281 C56.34065014 31.48826862 53.6833731 33.92244781 48.85595703 34.45410156 C47.89818359 34.50179687 46.94041016 34.54949219 45.95361328 34.59863281 C40.64047019 34.89182106 39.11305276 36.18556813 35.51611328 40.16113281 C27.52586796 44.76048395 16.56586927 44.10296018 7.73095703 42.72753906 C2.00724643 41.14689171 -2.13774126 38.05549482 -5.48388672 33.16113281 C-9.50111931 24.7103741 -12.75408732 15.63614267 -11.48388672 6.16113281 C-8.4391234 1.12152456 -5.70037691 0.04893151 0 0 Z M47.51611328 19.16113281 C46.03111328 23.12113281 46.03111328 23.12113281 44.51611328 27.16113281 C49.5314638 26.83153066 49.5314638 26.83153066 53.51611328 24.16113281 C53.19759558 22.05292485 53.19759558 22.05292485 52.51611328 20.16113281 C50.86611328 19.83113281 49.21611328 19.50113281 47.51611328 19.16113281 Z " transform="translate(11.484 28.839)" class="color5B7F9B svgShape"></path><path fill="#f5f4dc" d="M0 0 C2.4375 1 2.4375 1 4 2 C4.66 1.34 5.32 0.68 6 0 C9.89201406 -0.43244601 12.13230302 -0.57846465 15.4375 1.625 C17.5848256 4.88893492 17.71842864 6.12048534 17 10 C14.40787726 15.44259658 11.41694106 21.02068242 6 24 C3 24.5625 3 24.5625 0 24 C-2.625 21.8125 -2.625 21.8125 -5 19 C-5.721875 18.175 -6.44375 17.35 -7.1875 16.5 C-9.84194887 12.83869122 -11.08695888 10.44931458 -10.8125 5.875 C-9.05349185 -0.3491827 -6.20588668 -0.54437602 0 0 Z " transform="translate(27)" class="color5B7F9B svgShape"></path></svg></g></svg>