<svg id="SvgjsSvg1013" width="288" height="288" xmlns="http://www.w3.org/2000/svg" version="1.1" xmlns:xlink="http://www.w3.org/1999/xlink" xmlns:svgjs="http://svgjs.com/svgjs"><defs id="SvgjsDefs1014"></defs><g id="SvgjsG1015"><svg xmlns="http://www.w3.org/2000/svg" viewBox="0 0 70 70" width="288" height="288"><path fill="#f5f4dc" d="M0 0 C7.21660374 6.82075628 10.8302606 15.9983908 11.1640625 25.875 C10.28989874 36.71463063 6.92684583 45.58132565 -1.11328125 53.1796875 C-10.51388494 60.43312835 -20.65321446 61.80074641 -32.1484375 60.75 C-41.55609647 58.60353283 -49.45961265 52.74868841 -54.89453125 44.85546875 C-60.25271408 35.8583954 -60.60680355 24.97377314 -58.5625 14.84765625 C-55.36774862 5.57115339 -48.54831371 -1.34279735 -39.9609375 -5.8125 C-26.261852 -12.2860973 -11.55643854 -9.20831756 0 0 Z M-38.1484375 11.75 C-38.58792617 14.60601476 -38.73863737 16.84053457 -38.63671875 19.67578125 C-38.62964401 20.42337204 -38.62256927 21.17096283 -38.61528015 21.94120789 C-38.58741395 24.31601402 -38.52469882 26.68841351 -38.4609375 29.0625 C-38.43584418 30.67770018 -38.41303281 32.29293754 -38.39257812 33.90820312 C-38.33761397 37.85638819 -38.25140277 41.80278689 -38.1484375 45.75 C-36.4984375 45.75 -34.8484375 45.75 -33.1484375 45.75 C-33.1484375 41.13 -33.1484375 36.51 -33.1484375 31.75 C-30.9828125 31.811875 -28.8171875 31.87375 -26.5859375 31.9375 C-20.86939368 31.92019462 -16.95711517 31.88609413 -12.1484375 28.75 C-9.25618525 25.56110649 -7.90066498 23.0053217 -7.6484375 18.75 C-7.87407072 14.54355218 -9.39696667 11.96004931 -12.1484375 8.75 C-15.91168802 6.09841186 -20.15391808 6.34656334 -24.5859375 6.3125 C-25.71225586 6.26319336 -25.71225586 6.26319336 -26.86132812 6.21289062 C-27.59416016 6.20580078 -28.32699219 6.19871094 -29.08203125 6.19140625 C-29.74259521 6.17795166 -30.40315918 6.16449707 -31.08374023 6.15063477 C-34.5224009 7.14885067 -35.99280972 8.94657416 -38.1484375 11.75 Z " transform="translate(59.148 9.25)" class="color5B7F9B svgShape"></path><path fill="#f5f4dc" d="M0 0 C1.03769531 -0.01417969 2.07539062 -0.02835938 3.14453125 -0.04296875 C6.25578195 0.19267155 8.40527079 0.80379809 11.1875 2.1875 C13.33954428 4.82864525 13.18359381 6.29882645 13.0625 9.75 C12.1875 13.1875 12.1875 13.1875 10.6484375 14.890625 C7.13582143 16.74171791 3.80110392 16.50811003 -0.0625 16.375 C-0.80757812 16.36146484 -1.55265625 16.34792969 -2.3203125 16.33398438 C-4.15135416 16.29877204 -5.98202169 16.24496851 -7.8125 16.1875 C-7.8125 11.2375 -7.8125 6.2875 -7.8125 1.1875 C-5.13017173 -0.15366414 -2.99417741 0.01845979 0 0 Z " transform="translate(33.813 19.813)" class="color5B7F9B svgShape"></path></svg></g></svg>