<svg id="SvgjsSvg1019" width="288" height="288" xmlns="http://www.w3.org/2000/svg" version="1.1" xmlns:xlink="http://www.w3.org/1999/xlink" xmlns:svgjs="http://svgjs.com/svgjs"><defs id="SvgjsDefs1020"></defs><g id="SvgjsG1021"><svg xmlns="http://www.w3.org/2000/svg" viewBox="0 0 75 57" width="288" height="288"><path fill="#f5f4dc" d="M0 0 C0.57105469 0.45761719 1.14210938 0.91523438 1.73046875 1.38671875 C3.94745362 3.35530196 4.93705586 4.70626069 5.5625 7.625 C5 10 5 10 3.375 11.9375 C1 13 1 13 -1.8125 12.5625 C-4.56589311 11.21279749 -6.10284538 10.13517191 -8.3125 8.125 C-16.2954485 0.86938681 -25.66835876 -0.4809062 -36.1015625 -0.27734375 C-45.33492541 0.37953878 -52.02845044 4.17743633 -59 10 C-62.6713615 13.02347418 -62.6713615 13.02347418 -65.625 12.8125 C-68 12 -68 12 -70 10 C-70.1875 6.8125 -70.1875 6.8125 -69 3 C-50.73574787 -16.46258541 -19.87826391 -16.09884993 0 0 Z " transform="translate(70 12)" class="color5B7F9B svgShape"></path><path fill="#f5f4dc" d="M0 0 C3.56188507 2.18074596 4.71459168 3.06766615 5.9375 7.0625 C6 10 6 10 4 13 C1.1875 13.4375 1.1875 13.4375 -2 13 C-2.7425 12.38125 -3.485 11.7625 -4.25 11.125 C-8.18459868 8.08462829 -12.08976262 7.36884412 -17 7 C-21.14492415 7.67949576 -23.33530206 8.44878707 -26.5625 11.125 C-29 13 -29 13 -32.1875 13.375 C-35 13 -35 13 -37 11 C-37.5 8.1875 -37.5 8.1875 -37 5 C-27.16199545 -5.87358398 -12.42196808 -6.49075809 0 0 Z " transform="translate(53 26)" class="color5B7F9B svgShape"></path><path fill="#f5f4dc" d="M0 0 C1.9375 1.0625 1.9375 1.0625 3 3 C3.4375 6.5 3.4375 6.5 3 10 C0.76679398 12.66266871 -0.6200117 12.95347082 -4.0625 13.375 C-7 13 -7 13 -8.875 11.9375 C-10.64273274 8.8930714 -10.36823916 6.4368988 -10 3 C-7.77766882 -1.05248626 -4.20052866 -0.45005664 0 0 Z " transform="translate(41 44)" class="color5B7F9B svgShape"></path></svg></g></svg>