<svg id="SvgjsSvg1043" width="288" height="288" xmlns="http://www.w3.org/2000/svg" version="1.1" xmlns:xlink="http://www.w3.org/1999/xlink" xmlns:svgjs="http://svgjs.com/svgjs"><defs id="SvgjsDefs1044"></defs><g id="SvgjsG1045"><svg xmlns="http://www.w3.org/2000/svg" viewBox="0 0 68 68" width="288" height="288"><path fill="#f5f4dc" d="M0 0 C0.66 0 1.32 0 2 0 C2 11.55 2 23.1 2 35 C-8.125 32.75 -8.125 32.75 -11.81640625 31.4921875 C-12.52482666 31.2535498 -13.23324707 31.01491211 -13.96313477 30.76904297 C-14.82092529 30.47400879 -15.67871582 30.17897461 -16.5625 29.875 C-19.346875 28.92625 -22.13125 27.9775 -25 27 C-25 19.08 -25 11.16 -25 3 C-19.555 4.485 -19.555 4.485 -14 6 C-10.03660971 7.04693328 -8.62124798 7.22699445 -4.75 5.8125 C-2.00351397 4.00231602 -1.05271878 3.05288447 0 0 Z " transform="translate(30 33)" class="color5B7F9B svgShape"></path><path fill="#f5f4dc" d="M0 0 C0.66 0 1.32 0 2 0 C3.15664334 1.51006214 4.31002946 3.02446048 5.390625 4.58984375 C7.84114446 6.73702221 9.77411167 6.81610138 13 7 C16.69103352 6.27190893 16.69103352 6.27190893 20.375 5.0625 C22.56125 4.381875 24.7475 3.70125 27 3 C27 10.92 27 18.84 27 27 C23.06428207 28.33880154 19.12661092 29.67125147 15.1875 31 C14.06794922 31.3815625 12.94839844 31.763125 11.79492188 32.15625 C10.18520508 32.69765625 10.18520508 32.69765625 8.54296875 33.25 C7.55321045 33.58515625 6.56345215 33.9203125 5.54370117 34.265625 C3 35 3 35 0 35 C0 23.45 0 11.9 0 0 Z " transform="translate(36 33)" class="color5B7F9B svgShape"></path><path fill="#f5f4dc" d="M0 0 C1.44246094 0.47566406 1.44246094 0.47566406 2.9140625 0.9609375 C9.99274554 3.36049107 9.99274554 3.36049107 11.125 5.625 C7.49025154 7.0102886 3.84091392 8.3522987 0.1875 9.6875 C-1.34487305 10.27241211 -1.34487305 10.27241211 -2.90820312 10.86914062 C-13.79376071 14.79907036 -20.83384976 12.99121854 -31.4375 9.0625 C-32.80745117 8.5684668 -32.80745117 8.5684668 -34.20507812 8.06445312 C-36.43174182 7.26005629 -38.65472744 6.44683701 -40.875 5.625 C-37.56349299 2.31349299 -33.06891803 1.45751026 -28.6875 0 C-27.28661133 -0.48726563 -27.28661133 -0.48726563 -25.85742188 -0.984375 C-16.09068038 -4.25599284 -9.5942114 -3.32107318 0 0 Z " transform="translate(48.875 3.375)" class="color5B7F9B svgShape"></path><path fill="#f5f4dc" d="M0 0 C3.55947033 4.81009504 4.49729503 7.90813584 4 14 C-11.99378882 22.43308865 -11.99378882 22.43308865 -19 21 C-22.2715679 17.88422104 -24.1732548 14.81495645 -26.1484375 10.78125 C-26.49825684 10.07033203 -26.84807617 9.35941406 -27.20849609 8.62695312 C-27.60029053 7.82161133 -27.60029053 7.82161133 -28 7 C-24.27792979 5.62574531 -20.54641575 4.27920098 -16.8125 2.9375 C-15.75740234 2.54755859 -14.70230469 2.15761719 -13.61523438 1.75585938 C-12.59365234 1.39169922 -11.57207031 1.02753906 -10.51953125 0.65234375 C-9.58214111 0.31195068 -8.64475098 -0.02844238 -7.67895508 -0.37915039 C-4.65951383 -1.07890789 -2.92080317 -1.01432712 0 0 Z " transform="translate(64 15)" class="color5B7F9B svgShape"></path><path fill="#f5f4dc" d="M0 0 C6.18157144 0.60204605 11.61833761 2.44682181 17.4375 4.5625 C18.82098633 5.0565332 18.82098633 5.0565332 20.23242188 5.56054688 C22.4904648 6.36782647 24.74615565 7.18108727 27 8 C21.40611354 20.01310044 21.40611354 20.01310044 18 22 C10.20216439 22.12377517 2.98636782 19.3372382 -4 16 C-5.46650366 13.06699268 -5.36440295 11.27962656 -5 8 C-3.54771727 5.17668112 -1.83771131 2.58592235 0 0 Z " transform="translate(5 14)" class="color5B7F9B svgShape"></path></svg></g></svg>