<svg id="Layer_1" data-name="Layer 1" xmlns="http://www.w3.org/2000/svg" viewBox="0 0 1080 1080"><defs><style>.cls-1{fill:#f5f4dc;}</style></defs><path class="cls-1" d="M541,303.24c149.37.18,270,121.68,269.79,271.74C810.59,724.3,689,845,539.05,844.79c-149.71-.19-270.19-122-269.81-272.82C269.63,423.47,391.39,303.06,541,303.24ZM346.24,574c28.32-23.62,55.41-46.16,82.42-68.77,10.76-9,12.57-17.83,5.7-26.29s-16.1-8.63-26.82.29q-47.55,39.56-95,79.3c-12.8,10.74-12.69,20.34.31,31.24q43.34,36.36,86.85,72.5c4.6,3.83,9.1,7.89,14.18,11,7.42,4.46,14.47,2.37,20-3.74S440,656.13,435,649.22a42.87,42.87,0,0,0-7.52-7.34C400.79,619.52,374,597.21,346.24,574Zm387.51-.08c-3.84,3.3-6.47,5.61-9.15,7.85-25.17,21-50.44,41.88-75.49,63-8.77,7.41-9.76,16.39-3.53,24.16s15.59,9,24.29,1.86q50.24-41.33,99.92-83.28c9.85-8.33,9.78-18.77-.14-27.16q-49.27-41.64-99.07-82.65c-9.27-7.65-18.71-6.7-25.12,1.49-6.13,7.84-4.85,16.48,3.76,24.18,3.94,3.52,8.12,6.77,12.18,10.15C685.17,533.4,708.94,553.24,733.75,573.93ZM590.93,490.2c-1.17-9.31-5.47-15.54-14.08-17.16-9.89-1.85-16,3.72-19.47,12.43q-33,82.21-65.66,164.53c-1.57,4-3,10.23-1.08,12.91,3.74,5.15,9.51,11,15.26,12,9,1.64,14.11-5.62,17.37-13.84q32.16-80.8,64.56-161.5C589.12,496.35,590,493,590.93,490.2Z"/><path class="cls-1" d="M948.39,479.05c30.13,12.48,52.47,34.49,61.8,68.14a88.17,88.17,0,0,1,3.51,23.88c-.19,30.26,1.69,60.91-2.45,90.69-6.47,46.63-49.65,81-96.79,81.45-12,.12-24,.17-36,0-19.12-.27-33.66-14.36-33.7-33.29q-.24-102.07,0-204.13c0-18.34,12.09-30.42,34-34C874.9,355.62,828.63,260.6,732.16,195c-112.78-76.71-233.59-83.65-353.5-18.82C263.28,238.56,207.08,340.46,201,467.82c10.64,7,20,11.59,27.34,18.4,8.38,7.81,7,19.29,7,29.92q-.14,94.65,0,189.32c0,24.72-13.06,38-37.78,37.69C181,743,164.19,743.74,148,741c-47.14-8.09-81.54-50-81.88-97.74q-.24-33.84,0-67.69c.32-43.43,20.91-74.28,59.32-93.35,6.3-3.12,8.49-6.12,8.55-13.17,1.61-193.49,139.41-359,329.2-395.77C682.73,30.7,899.12,177.35,939.09,396.36,944,423.23,945.3,450.76,948.39,479.05Z"/><path class="cls-1" d="M642.29,945.37C756.09,959,841.41,882.8,845.4,777.78h66.87c.5,31.85-6,61.78-18,90.57A236.62,236.62,0,0,1,676.44,1014q-84.59.19-169.19,0c-35.54-.06-64.95-25.61-68.53-59.28-3.85-36.18,19.09-68.54,55.07-74.78,15.08-2.61,30.91-1.16,46.39-1.19,15.15,0,30.56-1.32,45.38,1C617.82,884.84,637.18,908.31,642.29,945.37Z"/></svg>