<svg id="SvgjsSvg1026" width="288" height="288" xmlns="http://www.w3.org/2000/svg" version="1.1" xmlns:xlink="http://www.w3.org/1999/xlink" xmlns:svgjs="http://svgjs.com/svgjs"><defs id="SvgjsDefs1027"></defs><g id="SvgjsG1028"><svg xmlns="http://www.w3.org/2000/svg" viewBox="0 0 59 62" width="288" height="288"><path fill="#f5f4dc" d="M0 0 C-0.33 1.65 -0.66 3.3 -1 5 C-4.54402039 4.55699745 -7.51006904 3.81716439 -10.75 2.375 C-15.63701226 0.49107543 -19.96475251 0.68923716 -25 2 C-30.89050966 4.63149916 -35.22663097 8.32984064 -38.06640625 14.20703125 C-39.19601829 17.58641454 -39.38643248 20.63243447 -39.5625 24.1875 C-39.90198366 30.80396733 -39.90198366 30.80396733 -41 33 C-42.65 33 -44.3 33 -46 33 C-47.03982818 11.78750517 -47.03982818 11.78750517 -38.98046875 2.73046875 C-27.65286282 -8.27972616 -12.96647168 -8.78373888 0 0 Z " transform="translate(49 6)" class="color5B7F9B svgShape"></path><path fill="#f5f4dc" d="M0 0 C4.5893179 3.18113533 7.09431177 6.40691835 8.67578125 11.83984375 C8.93088857 14.6048779 9.05407722 17.09220393 8.98828125 19.83984375 C8.99150391 20.51273438 8.99472656 21.185625 8.99804688 21.87890625 C8.94824125 26.56969036 8.11717331 30.4295286 6.67578125 34.83984375 C5.02578125 34.50984375 3.37578125 34.17984375 1.67578125 33.83984375 C1.6914917 33.22987549 1.70720215 32.61990723 1.72338867 31.99145508 C1.78597938 29.21184665 1.82484747 26.43238683 1.86328125 23.65234375 C1.88841797 22.69263672 1.91355469 21.73292969 1.93945312 20.74414062 C2.10335225 13.7458829 2.10335225 13.7458829 -1.32421875 7.83984375 C-4.15876906 6.08198309 -7.02183242 5.26294483 -10.32421875 4.83984375 C-14.14166535 5.88011291 -14.14166535 5.88011291 -17.32421875 7.83984375 C-18.12859375 8.23171875 -18.93296875 8.62359375 -19.76171875 9.02734375 C-20.27734375 9.29546875 -20.79296875 9.56359375 -21.32421875 9.83984375 C-22.31421875 8.84984375 -23.30421875 7.85984375 -24.32421875 6.83984375 C-22.24960415 2.79980478 -20.41383014 0.83477613 -16.32421875 -1.16015625 C-10.88610191 -2.85885522 -5.11853254 -2.55496498 0 0 Z " transform="translate(40.324 12.16)" class="color5B7F9B svgShape"></path><path fill="#f5f4dc" d="M0 0 C2.29013653 3.4352048 2.17842973 4.985331 2 9 C-1.75 10.125 -1.75 10.125 -4 9 C-4.33 8.01 -4.66 7.02 -5 6 C-5.99 5.67 -6.98 5.34 -8 5 C-7.94779297 5.99966797 -7.94779297 5.99966797 -7.89453125 7.01953125 C-7.5890071 17.42190112 -9.01860385 25.63268467 -16.0859375 33.5390625 C-18.3677595 35.28069807 -20.18025089 35.6414752 -23 36 C-23.875 33.9375 -23.875 33.9375 -24 31 C-22.8359375 29.4609375 -22.8359375 29.4609375 -21.25 27.8125 C-16.00367219 22.17665366 -15.02171715 15.61223613 -14.5625 8.125 C-14.23009853 3.32213794 -14.23009853 3.32213794 -12.125 0.375 C-7.56797587 -2.57366267 -4.94822143 -1.79935325 0 0 Z " transform="translate(37 22)" class="color5B7F9B svgShape"></path><path fill="#f5f4dc" d="M0 0 C1.65 0 3.3 0 5 0 C7.85092208 5.63378501 8.51227414 10.15890396 8.4375 16.4375 C8.42940308 17.74170898 8.42940308 17.74170898 8.42114258 19.07226562 C8.20772613 28.31075165 7.2934728 39.78685065 1 47 C-0.32 46.67 -1.64 46.34 -3 46 C-2.52620241 41.16726456 -1.67769479 36.69753028 -0.4375 32 C2.06828849 21.48791168 1.52067908 10.64475353 0 0 Z " transform="translate(51 15)" class="color5B7F9B svgShape"></path><path fill="#f5f4dc" d="M0 0 C1.67542976 0.28604898 3.34385343 0.61781233 5 1 C5.34241632 10.11207862 5.20250557 18.7637435 -1 26 C-5.11612617 28.68443011 -8.118794 29.34865757 -13 29 C-13.33 27.35 -13.66 25.7 -14 24 C-13.45730469 23.76925781 -12.91460937 23.53851563 -12.35546875 23.30078125 C-11.28232422 22.81158203 -11.28232422 22.81158203 -10.1875 22.3125 C-9.47980469 21.99925781 -8.77210937 21.68601562 -8.04296875 21.36328125 C-5.33800361 19.55824715 -4.37343346 17.9477572 -3 15 C-2.25140886 11.46314995 -2.25140886 11.46314995 -1.875 7.75 C-1.08705882 1.08705882 -1.08705882 1.08705882 0 0 Z " transform="translate(14 23)" class="color5B7F9B svgShape"></path><path fill="#f5f4dc" d="M0 0 C1.32 0 2.64 0 4 0 C5.73873675 8.02677102 3.71678412 15.66640149 -0.5625 22.625 C-1.94219687 24.6623094 -3.2504634 26.2504634 -5 28 C-7.625 28.125 -7.625 28.125 -10 28 C-10.3125 25.9375 -10.3125 25.9375 -10 23 C-8.79278983 21.45745367 -7.58517437 19.91522192 -6.375 18.375 C-3.84720828 14.00881429 -2.9553669 9.00413566 -1.796875 4.1328125 C-1 1 -1 1 0 0 Z " transform="translate(34 33)" class="color5B7F9B svgShape"></path><path fill="#f5f4dc" d="M0 0 C2.125 0.9375 2.125 0.9375 4 2 C3.52389341 6.99911924 1.96837781 9.97832683 -1 14 C-2.65 13.67 -4.3 13.34 -6 13 C-5.4574852 8.44287564 -4.3106498 4.97431766 -2 1 C-1.34 0.67 -0.68 0.34 0 0 Z " transform="translate(42 48)" class="color5B7F9B svgShape"></path></svg></g></svg>